<?xml version="1.0" encoding="UTF-8" standalone="no"?>
<!-- Generator: Adobe Illustrator 24.2.3, SVG Export Plug-In . SVG Version: 6.00 Build 0)  -->

<svg
   xmlns:dc="http://purl.org/dc/elements/1.1/"
   xmlns:cc="http://creativecommons.org/ns#"
   xmlns:rdf="http://www.w3.org/1999/02/22-rdf-syntax-ns#"
   xmlns:svg="http://www.w3.org/2000/svg"
   xmlns="http://www.w3.org/2000/svg"
   xmlns:sodipodi="http://sodipodi.sourceforge.net/DTD/sodipodi-0.dtd"
   xmlns:inkscape="http://www.inkscape.org/namespaces/inkscape"
   version="1.1"
   id="Layer_1"
   x="0px"
   y="0px"
   viewBox="0 0 159.24902 174.60036"
   xml:space="preserve"
   sodipodi:docname="breadiquette.svg"
   width="159.24902"
   height="174.60036"
   inkscape:version="0.92.2 5c3e80d, 2017-08-06"><metadata
     id="metadata77"><rdf:RDF><cc:Work
         rdf:about=""><dc:format>image/svg+xml</dc:format><dc:type
           rdf:resource="http://purl.org/dc/dcmitype/StillImage" /><dc:title></dc:title></cc:Work></rdf:RDF></metadata><defs
     id="defs75" /><sodipodi:namedview
     pagecolor="#ffffff"
     bordercolor="#666666"
     borderopacity="1"
     objecttolerance="10"
     gridtolerance="10"
     guidetolerance="10"
     inkscape:pageopacity="0"
     inkscape:pageshadow="2"
     inkscape:window-width="640"
     inkscape:window-height="480"
     id="namedview73"
     showgrid="false"
     fit-margin-top="0"
     fit-margin-left="0"
     fit-margin-right="0"
     fit-margin-bottom="0"
     inkscape:zoom="0.472"
     inkscape:cx="106.91902"
     inkscape:cy="89.370353"
     inkscape:window-x="0"
     inkscape:window-y="0"
     inkscape:window-maximized="0"
     inkscape:current-layer="Layer_1" /><style
     type="text/css"
     id="style2">
	.st0{fill:none;}
</style><path
     d="m 9.6690168,103.14 c -0.03,-0.07 -0.05,-0.19 -0.1,-0.2 -2.05,-0.51 -3.65,-1.86 -5.38,-2.94 -1.12,-0.69 -2.1,-1.6 -2.59,-2.88 -0.53,-1.4 -0.53,-2.74 0.82,-3.79 -0.38,-0.67 -1.04,-1.05 -1.53999996,-1.58 -0.72,-0.78 -1.13,-1.62 -0.71,-2.68 0.42,-1.07 1.28999996,-1.42 2.35999996,-1.43 1.3,-0.01 2.49,0.47 3.69,0.88 1.87,0.63 3.71,1.33 5.5700002,1.99 0.23,0.08 0.45,0.22 0.74,0.12 0.19,-0.3 -0.11,-0.5 -0.21,-0.74 -0.88,-2.09 -1.56,-4.22 -1.94,-6.47 -0.34,-2.03 -0.6500002,-4.06 -0.6700002,-6.11 -0.04,-3.56 0.9300002,-6.74 3.6400002,-9.2 1.52,-1.38 3.03,-2.77 4.74,-3.92 1.07,-0.73 2.29,-1.14 3.56,-1.28 0.67,-0.07 1.02,-0.35 1.32,-0.9 0.79,-1.49 1.65,-2.94 2.42,-4.43 1.27,-2.45 2.94,-4.64 4.65,-6.78 2.11,-2.63 4.44,-5.05 7.03,-7.22 2.52,-2.12 5.21,-4.01 8.03,-5.7 3.36,-2.01 6.92,-3.58 10.62,-4.85 4.49,-1.54 9.1,-2.46 13.83,-2.81 0.5,-0.04 0.96,-0.04 1.33,-0.49 0.31,-0.37 0.8,-0.36 1.26,-0.39 1.2,-0.07 2.38,0.08 3.56,0.23 2.52,0.33 5.03,0.64 7.55,0.94 1.61,0.2 3.18,0.69 4.76,1.03 2.41,0.52 4.66,1.49 7.03,2.1 0.7,0.18 1.39,0.54 1.99,0.95 1.46,1 3.060003,1.74 4.600003,2.59 3.29,1.82 6.32,3.98 9.19,6.38 4.01,3.37 7.52,7.21 10.5,11.53 2.65,3.83 4.83,7.92 6.56,12.24 0.9,2.24 1.45,4.58 1.99,6.94 0.64,2.77 1,5.56 1.3,8.37 0.07,0.65 0.24,1.28 0.43,1.92 0.37,1.22 0.36,2.51 0.46,3.77 0.12,1.6 -0.14,3.2 -0.14,4.79 -0.01,1.33 -0.17,2.6 -0.41,3.89 -0.22,1.18 -0.78,2.23 -1.03,3.41 -0.55,2.61 -1.17,5.2 -2.11,7.71 -0.92,2.46 -1.9,4.9 -3.17,7.21 -0.33,0.6 -0.92,1.03 -1.21,1.72 1.53,1.68 2.52,3.71 3.49,5.75 0.42,0.88 0.44,0.86 1.27,0.44 1.28,-0.65 2.54,-1.36 3.86,-1.92 2.53,-1.07 5.15,-1.7 7.92,-1.22 2.86,0.5 5.12,1.91 6.57,4.5 0.22,0.39 0.37,0.86 0.68,1.17 0.94,0.95 0.92,1.97 0.57,3.17 -0.4,1.4 -0.94,2.69 -1.77,3.9 -1.77,2.58 -3.71,5.02 -5.93,7.22 -1.66,1.65 -3.46,3.15 -5.3,4.59 -2.88,2.25 -5.7,4.6 -8.84,6.47 -2.26,1.35 -4.57,2.6 -6.75,4.06 -1.98,1.32 -4.1,2.42 -6.1,3.72 -0.74,0.48 -1.57,0.72 -2.38,0.99 -1.64,0.56 -3.13,1.44 -4.73,2.07 -1.99,0.78 -3.98,1.54 -6.09,1.91 -0.740003,0.13 -1.480003,0.17 -2.210003,0.07 -1.22,-0.17 -2.44,-0.32 -3.67,-0.4 -0.6,-0.04 -1.02,-0.49 -1.62,-0.72 -0.47,1.32 -1.39,2.36 -2.26,3.31 -1.18,1.28 -2.55,2.42 -3.93,3.53 -1.97,1.59 -4.25,2.42 -6.58,3.24 -3.3,1.16 -6.68,1.66 -10.15,1.69 -2.97,0.02 -5.74,-0.82 -8.43,-2.05 -4.18,-1.91 -7.73,-4.64 -10.71,-8.12 -0.05,-0.06 -0.14,-0.07 -0.3,-0.15 -0.26,0.31 -0.59,0.62 -0.82,0.99 -1.87,2.99 -4.84,4.36 -8.03,5.32 -2.49,0.75 -4.92,0.45 -7.26,-0.79 -2.18,-1.16 -4.35,-2.31 -6.41,-3.67 -0.93,-0.62 -2.01,-0.93 -3,-1.42 -2.32,-1.12 -4.24,-2.81 -6.28,-4.33 -2.51,-1.85 -5.06,-3.64 -7.47,-5.62 -3.1500002,-2.58 -6.0100002,-5.43 -8.1300002,-9 -1.5,-2.52 -1.96,-5.16 -1.89,-8.01 0.06,-2.6 1.12,-4.55 3.22,-6.04 1.04,-0.73 2.06,-1.51 2.98,-2.39 1.52,-1.46 3.3800002,-2.12 5.3600002,-2.57 0.68,-0.16 1.37,-0.24 2.07,-0.33 0.77,-0.11 0.8,-0.11 0.57,-0.81 -0.57,-1.72 -1.03,-3.46 -1.55,-5.19 -1.03,-3.42 -2.16,-6.8 -3.17,-10.23 -0.58,-1.97 -1.0200002,-3.98 -1.5200002,-5.97 -0.12,-0.48 -0.1,-0.91 0.45,-1.12 0.4100002,0.36 0.6700002,0.78 0.8600002,1.31 0.49,1.35 0.75,2.78 1.22,4.13 1.17,3.38 1.98,6.86 3.22,10.21 0.68,1.84 1.11,3.78 1.69,5.66 0.7,2.26 0.72,2.23 3.09,2.39 4.43,0.29 8.82,0.75 13.05,2.28 2.44,0.88 4.62,2.1 6.59,3.75 1.22,1.01 2.38,2.09 3.27,3.42 0.14,-0.12 0.23,-0.17 0.25,-0.23 0.27,-1.55 1.08,-2.91 1.54,-4.4 0.19,-0.62 0.58,-1.18 1.05,-1.66 2.02,-2.05 4.18,-3.94 6.68,-5.41 2.28,-1.34 4.75,-2.23 7.2,-3.18 2.55,-0.98 5.23,-1.43 7.96,-1.27 1.84,0.11 3.67,0.42 5.51,0.56 1.83,0.13 3.55,0.62 5.19,1.42 0.07,0.04 0.15,0.07 0.22,0.11 0.4,0.21 0.61,0.06 0.7,-0.35 0.13,-0.6 0.24,-1.21 0.38,-1.8 0.5,-2.07 1.2,-4.09 1.6,-6.19 0.33,-1.73 0.67,-3.46 1.15,-5.16 0.46,-1.62 0.71,-3.29 1.1,-5.17 -1.05,0.73 -1.99,1.15 -2.94,1.52 -1.95,0.76 -3.91,1.49 -5.86,2.23 -3.96,1.49 -8.11,2.02 -12.29,2.23 -2.41,0.12 -4.84,0.07 -7.26,0.03 -2.34,-0.04 -4.68,0.06 -7.01,-0.29 -2.56,-0.38 -5.14,-0.59 -7.72,-0.74 -3.53,-0.19 -7.02,-0.71 -10.51,-1.24 -2.84,-0.44 -5.65,-1 -8.47,-1.53 -3.51,-0.67 -7.03,-1.24 -10.41,-2.45 -0.37,-0.13 -0.72,-0.25 -1.1000002,-0.14 z M 83.529017,97.05 c 0.31,0.15 0.54,0.25 0.75,0.37 1.32,0.79 1.78,2.98 0.89,4.23 -0.45,0.64 -0.63,1.17 -0.71,2.01 -0.02,0.24 -0.14,0.47 -0.21,0.71 -0.69,2.37 -0.94,4.83 -1.47,7.23 -0.35,1.59 -0.63,3.21 -0.97,4.81 -0.44,2.04 -1.21,4 -1.48,6.09 -0.05,0.41 -0.24,0.9 0,1.21 0.69,0.91 1.32,1.88 2.09,2.99 0.2,-1.36 0.7,-2.28 1.41,-3.1 0.51,-0.59 0.98,-1.2 1.49,-1.79 1.73,-1.99 3.59,-3.82 5.8,-5.27 2.72,-1.79 5.62,-3.17 8.65,-4.37 2.880003,-1.15 5.780003,-1.41 8.820003,-1.13 1.61,0.14 3.14,0.56 4.7,0.91 2.74,0.6 5.35,1.56 7.84,2.83 0.51,0.26 0.78,0.24 1.08,-0.28 1.1,-1.93 2.14,-3.89 2.88,-5.98 0.92,-2.59 1.56,-5.26 2.55,-7.83 1,-2.63 1.27,-5.42 1.74,-8.17 0.53,-3.06 0.28,-6.05 -0.55,-9.02 -0.18,-0.63 -0.4,-1.25 -0.58,-1.87 -0.5,-1.69 -0.77,-3.44 -1.5,-5.06 -0.21,-0.47 -0.47,-0.97 0.02,-1.47 0.19,-0.19 0.08,-0.47 -0.01,-0.7 -0.42,-1.11 -0.81,-2.24 -1.27,-3.33 -0.47,-1.13 -1.09,-2.23 -1.5,-3.36 -0.41,-1.12 -1.05,-2.02 -1.75,-2.91 -0.34,-0.43 -0.52,-0.93 -0.78,-1.39 -0.1,-0.18 -0.38,-0.38 0.02,-0.67 1,0.8 1.55,2.06 2.67,2.81 -0.7,-1.04 -0.78,-2.28 -1.26,-3.38 -0.23,-0.53 -0.47,-1.05 -0.77,-1.54 -1.53,-2.47 -3.02,-4.97 -4.79,-7.29 -1.65,-2.16 -3.64,-4 -5.49,-5.97 -1.45,-1.54 -3.21,-2.8 -4.9,-4.09 -1.63,-1.24 -3.26,-2.55 -5.15,-3.36 -2.940003,-1.26 -5.520003,-3.26 -8.650003,-4.12 -1.59,-1.12 -3.51,-1.28 -5.3,-1.81 -1.56,-0.46 -3.14,-0.86 -4.72,-1.29 -0.48,-0.13 -0.91,-0.2 -1.34,0.26 -0.52,0.55 -1.27,0.47 -1.82,0.13 -0.83,-0.5 -1.77,-0.43 -2.64,-0.69 -0.96,-0.28 -2.03,-0.21 -3.06,-0.18 -2.99,0.07 -5.97,0.22 -8.92,0.82 -1.4,0.29 -2.85,0.36 -4.22,0.76 -1.35,0.4 -2.7,0.81 -4.03,1.24 -2.27,0.74 -4.27,2.11 -6.52,2.9 -0.2,0.07 -0.37,0.17 -0.43,0.4 -0.14,0.53 -0.59,0.66 -1.03,0.75 -1.7,0.36 -3.3,0.96 -4.75,1.93 -1.33,0.89 -2.71,1.71 -3.93,2.75 -0.29,0.24 -0.62,0.47 -0.51,0.91 0.15,0.59 -0.2,0.82 -0.64,1.02 -1.21,0.53 -2.36,1.16 -3.2,2.23 -0.08,0.09 -0.18,0.17 -0.28,0.24 -1.49,1.04 -2.86,2.17 -3.38,4.03 -0.07,0.27 -0.28,0.5 -0.43,0.75 -0.83,1.42 -1.65,2.84 -2.62,4.17 -1,1.38 -1.61,2.95 -2.22,4.52 -0.13,0.33 -0.26,0.66 -0.24,0.82 5.73,1.91 10.61,4.87 14.89,9.06 0.2,-0.68 0.35,-1.27 0.53,-1.84 0.57,-1.79 1.68,-3.28 2.75,-4.79 1.98,-2.77 4.38,-5.1 7.26,-6.93 0.95,-0.6 1.96,-1.03 3.06,-1.25 0.81,-0.16 1.6,-0.39 2.41,-0.49 2.37,-0.29 4.74,-0.51 7.1,0.1 2.85,0.74 5.5,1.93 7.95,3.55 1.78,1.17 3.17,2.7 4.1,4.65 1.28,2.67 1.91,5.5 2.06,8.44 0.12,2.4 -0.39,4.73 -0.82,7.07 -0.48,2.63 -1.53,4.99 -3.21,7.1 -0.86,1.08 -1.6,2.26 -2.58,3.23 0.13,0.19 0.19,0.3 0.28,0.39 1.09,1.02 2.09,2.08 2.13,3.71 0.01,0.51 0.4,0.39 0.73,0.27 1.4,-0.52 2.59,-1.42 3.89,-2.11 1.35,-0.72 2.59,-1.7 4.24,-1.78 0.72,-0.04 1.17,0.21 1.55,0.75 0.43,0.61 0.59,1.3 0.43,2 -0.28,1.22 -0.43,2.55 -1.79,3.19 -0.15,-0.04 -0.2,0.1 -0.34,0.27 z M 2.9490168,139.66 c -0.11,2.26 0.62,4.21 1.73,6.11 1.86,3.2 4.6,5.54 7.3700002,7.86 1.42,1.19 2.99,2.17 4.46,3.29 1.73,1.32 3.44,2.67 5.18,3.97 1.22,0.91 2.52,1.69 3.91,2.33 1.12,0.52 2.28,0.97 3.28,1.7 1.9,1.39 3.99,2.44 6.12,3.41 1.17,0.53 2.41,0.87 3.7,0.79 1.82,-0.11 3.61,-0.47 5.2,-1.38 2.46,-1.4 4.98,-2.81 5.34,-6.09 0.01,-0.12 0.07,-0.23 0.14,-0.34 0.82,-1.29 0.59,-2.67 0.34,-4.05 -0.06,-0.34 -0.29,-0.45 -0.54,-0.6 -4.03,-2.33 -6.45,-5.71 -6.79,-10.45 -0.18,-2.58 -0.28,-5.16 0.15,-7.73 0.11,-0.66 0.13,-1.29 -0.67,-1.63 -0.31,-0.13 -0.54,-0.49 -0.79,-0.77 -1.93,-2.13 -4.2,-3.79 -6.86,-4.88 -3.92,-1.61 -8.07,-2.16 -12.25,-2.48 -1.76,-0.13 -3.52,-0.26 -5.28,-0.34 -2.38,-0.11 -4.58,0.43 -6.57,1.63 -1.3300002,0.8 -2.4900002,1.87 -3.7300002,2.82 -0.16,0.13 -0.3,0.29 -0.46,0.4 -2.32,1.56 -3.21,3.76 -2.98,6.43 z M 109.46902,152.23 c -0.09,-1.07 -0.18,-2.13 -0.49,-3.15 -0.77,-2.52 -1.76,-4.95 -3.09,-7.23 -0.17,-0.29 -0.39,-0.58 -0.04,-0.86 0.34,-0.27 0.7,-0.2 0.99,0.1 0.17,0.18 0.34,0.36 0.46,0.58 1.43,2.55 2.67,5.18 3.29,8.06 0.29,1.36 0.53,2.74 0.79,4.11 0.08,0.39 0.31,0.83 -0.09,1.15 -0.45,0.35 -0.85,0 -1.25,-0.2 -0.11,-0.06 -0.22,-0.11 -0.31,-0.2 -1.97,-1.78 -3.7,-3.77 -4.43,-6.38 -0.56,-1.99 -1.42,-3.81 -2.48,-5.6 -1.1,0.98 -2.36,1.69 -3.450003,2.62 -1.75,1.48 -3.51,2.96 -5.13,4.58 -1.43,1.43 -2.88,2.93 -3,5.17 -0.01,0.11 -0.1,0.22 -0.17,0.32 -0.94,1.46 -0.94,2.63 0.17,3.9 1.23,1.4 2.63,2.46 4.64,2.74 2.63,0.37 5.130003,0.3 7.630003,-0.62 1.74,-0.64 3.4,-1.43 5.12,-2.1 3.14,-1.24 6.13,-2.77 8.97,-4.6 3.1,-2 6.37,-3.73 9.43,-5.8 3.5,-2.37 6.82,-4.98 10,-7.76 1.56,-1.37 3.06,-2.83 4.4,-4.45 0.94,-1.13 1.93,-2.23 2.76,-3.44 0.9,-1.31 1.73,-2.67 2.3,-4.18 0.54,-1.45 0.42,-2.52 -1.02,-3.3 -0.41,-0.22 -0.61,-0.62 -0.15,-0.99 0.36,-0.29 0.16,-0.45 -0.02,-0.69 -0.97,-1.29 -2.31,-1.92 -3.84,-2.23 -2.07,-0.41 -4.09,-0.09 -6.08,0.49 -1.81,0.54 -3.49,1.35 -5.18,2.35 1.12,1.35 2.09,2.66 2.89,4.1 1.31,2.34 2.33,4.79 3.1,7.36 0.17,0.55 0.41,1.07 0.62,1.61 0.12,0.31 0.04,0.57 -0.23,0.76 -0.24,0.17 -0.47,0.06 -0.69,-0.07 -0.43,-0.26 -0.73,-0.65 -1.02,-1.05 -2.45,-3.3 -4.78,-6.68 -7.43,-9.82 -0.8,-0.95 -0.9,-1.03 -1.9,-0.33 -2.05,1.42 -4.04,2.92 -6.2,4.17 -0.06,0.03 -0.08,0.14 -0.16,0.28 1.65,0.98 2.25,2.68 3.04,4.32 1.41,2.93 1.19,6.19 2.09,9.21 0.16,0.55 -0.37,0.94 -0.92,0.74 -0.26,-0.1 -0.53,-0.26 -0.72,-0.46 -0.89,-0.97 -1.86,-1.87 -2.47,-3.06 -1.02,-1.97 -2.12,-3.89 -2.97,-5.95 -0.41,-0.97 -0.84,-1.95 -1.55,-2.75 -0.34,0.09 -0.55,0.29 -0.77,0.48 -1.58,1.31 -3.28,2.47 -5.03,3.55 -1.82,1.12 -3.46,2.48 -5.24,3.64 -0.34,0.22 -0.38,0.49 -0.19,0.84 1.2,2.21 2.03,4.57 2.8,6.96 0.4,1.22 1.25,2.17 2.22,3.08 z M 57.079017,97.59 c -0.11,-0.58 -0.28,-0.98 -0.57,-1.33 -0.18,-0.22 -0.39,-0.41 -0.47,-0.71 -0.45,-1.79 -1.46,-3.31 -2.44,-4.81 -2.99,-4.61 -5.9,-9.29 -9.42,-13.53 -0.31,-0.37 -0.55,-0.79 -1.12,-0.87 -0.55,-0.07 -0.85,-0.53 -0.91,-1.04 -0.07,-0.62 -0.42,-1.04 -0.8,-1.47 -3.02,-3.44 -6.66,-6.08 -10.75,-8.1 -1.35,-0.67 -2.7,-1.37 -4.26,-1.52 -1.16,-0.11 -2.29,0.13 -3.44,0.18 -1.93,0.1 -3.72,0.62 -5.2,1.94 -1.16,1.04 -2.36,2.05 -3.44,3.17 -0.64,0.67 -1.38,1.34 -1.71,2.23 -0.67,1.77 -1.16,3.59 -1.08,5.52 0.09,2.3 0.38,4.58 0.85,6.83 0.49,2.29 1.14,4.54 2.41,6.56 0.32,0.51 0.73,0.8 1.31,1.01 2.13,0.78 4.32,1.28 6.51,1.83 3.83,0.95 7.71,1.63 11.57,2.38 3.59,0.69 7.24,0.95 10.88,1.23 2.7,0.21 5.4,0.36 8.1,0.49 1.3,0.06 2.6,0.01 3.98,0.01 z m 26.02,30.29 c 0.02,2.05 0.18,4.03 -0.32,5.95 -0.73,2.78 -1.67,5.5 -3.31,7.91 -0.2,0.3 -0.58,0.6 -0.47,0.96 0.26,0.86 0.16,1.77 0.47,2.64 0.79,2.18 2.13,3.96 3.75,5.56 0.55,0.54 1.26,0.86 1.87,1.33 0.5,0.38 1.18,0.92 1.88,0.75 0.83,-0.2 1.56,-0.07 2.27,0.26 0.64,0.29 0.94,0.13 1.23,-0.49 0.72,-1.53 1.64,-2.95 2.87,-4.13 1.52,-1.44 3.05,-2.88 4.65,-4.23 2.950003,-2.49 6.100003,-4.76 9.290003,-6.91 3.98,-2.68 7.63,-5.85 11.87,-8.14 2.43,-1.31 4.46,-3.22 6.87,-4.55 0.44,-0.24 0.42,-0.51 0.23,-0.89 -0.47,-0.96 -0.89,-1.94 -1.38,-2.89 -0.55,-1.06 -1.19,-2.07 -1.97,-2.97 -0.34,-0.4 -0.7,-0.87 -1.29,-0.27 -0.16,0.17 -0.45,0.25 -0.69,0.11 -0.31,-0.18 -0.32,-0.53 -0.18,-0.76 0.4,-0.66 -0.08,-0.87 -0.5,-1.13 -0.56,-0.35 -1.15,-0.63 -1.78,-0.83 -1.64,-0.52 -3.28,-1.06 -4.92,-1.59 -2.69,-0.87 -5.45,-1.13 -8.27,-0.89 -1.62,0.14 -3.09,0.79 -4.63,1.21 -1.840003,0.51 -3.480003,1.43 -5.140003,2.32 -3.1,1.67 -5.78,3.87 -8.24,6.38 -1.17,1.19 -2.18,2.45 -2.84,3.97 -0.29,0.68 -0.63,1.25 -1.32,1.32 z m -28.43,27.93 c 0.7,0 1.41,0.1 2.09,-0.02 3.51,-0.63 6.9,-1.49 10.11,-3.26 4.09,-2.26 7.05,-5.53 9.71,-9.21 1.28,-1.77 2.36,-3.65 3.24,-5.64 1.27,-2.85 2.06,-5.8 1.63,-8.96 -0.13,-0.97 -0.27,-1.97 -0.92,-2.76 -1.53,-1.9 -3.48,-3.11 -5.92,-3.41 -1.83,-0.22 -3.67,-0.38 -5.51,-0.57 -3.67,-0.37 -7.2,0.16 -10.54,1.76 -0.81,0.39 -1.64,0.8 -2.5,1.03 -1.51,0.39 -2.76,1.27 -4.03,2.06 -2.06,1.29 -3.85,2.93 -5.45,4.75 -0.24,0.27 -0.45,0.59 -0.6,0.92 -1.29,2.74 -2.04,5.61 -2.24,8.63 -0.1,1.52 0.04,3.04 0.02,4.55 -0.02,2.47 0.82,4.52 2.4,6.39 1.4,1.65 3.01,2.88 5.11,3.45 1.11,0.3 2.24,0.42 3.4,0.29 z m 16.57,-66.72 c 1.65,-1.98 3.2,-3.88 4.26,-6.13 0.78,-1.66 1.1,-3.43 1.45,-5.2 0.84,-4.22 0.52,-8.33 -1.2,-12.29 -0.75,-1.72 -1.88,-3.15 -3.46,-4.23 -1.4,-0.96 -2.92,-1.68 -4.46,-2.35 -1.46,-0.63 -2.96,-1.16 -4.6,-1.29 -1.61,-0.12 -3.2,0.04 -4.79,0.21 -2.02,0.22 -3.92,0.86 -5.61,2.05 -2.2,1.55 -4.17,3.33 -5.8,5.46 -1.32,1.72 -2.69,3.41 -3.28,5.58 -0.35,1.3 -0.46,2.42 0.6,3.5 1.75,1.8 3.06,3.95 4.65,5.88 1.52,1.85 2.6,3.99 3.9,5.97 0.56,0.86 0.56,0.85 1.47,0.33 1.61,-0.91 3.21,-1.87 5.14,-1.85 1.19,0.01 2.38,0.05 3.55,0.28 3.05,0.62 5.77,1.89 8.18,4.08 z m -19.61,68.49 c -0.1,0.57 -0.18,1.04 -0.07,1.54 0.16,0.69 0.15,1.38 -0.14,2.06 -0.35,0.81 -0.11,1.43 0.43,2.12 2.79,3.53 6.28,6.12 10.35,7.95 1.53,0.69 3.13,1.24 4.81,1.48 2.25,0.32 4.51,0.24 6.75,-0.12 4.24,-0.69 8.36,-1.7 11.93,-4.27 2.22,-1.6 4.16,-3.46 5.62,-5.8 0.31,-0.5 0.36,-0.89 -0.17,-1.26 -0.97,-0.67 -1.39,-1.69 -1.73,-2.76 -0.29,-0.93 -0.23,-1.86 -0.07,-2.8 0.12,-0.72 -0.18,-0.97 -0.8,-0.62 -0.62,0.35 -1.09,0.13 -1.61,-0.13 -0.85,-0.41 -1.71,-0.8 -2.54,-1.26 -0.36,-0.2 -0.57,-0.15 -0.85,0.12 -1.54,1.51 -3.42,2.56 -5.26,3.63 -1.14,0.66 -1.7,1.58 -2,2.79 -0.25,0.99 -0.61,1.97 -0.83,2.96 -0.41,1.84 -2.09,3.09 -2.22,5.03 0,0.04 -0.02,0.08 -0.05,0.11 -0.12,0.18 -0.28,0.3 -0.51,0.27 -0.23,-0.03 -0.38,-0.19 -0.41,-0.4 -0.03,-0.2 -0.01,-0.41 0.02,-0.61 0.43,-2.46 0.3,-4.91 -0.02,-7.36 -0.16,-1.18 -0.32,-2.36 -0.47,-3.54 -0.06,-0.48 -0.25,-0.62 -0.74,-0.43 -0.8,0.31 -1.64,0.55 -2.45,0.83 -0.71,0.24 -1.43,0.42 -2.18,0.32 -0.97,-0.14 -2.01,-0.15 -2.89,-0.53 -1.06,-0.45 -1.96,-0.19 -2.95,0.08 -2.88,0.8 -5.82,1.18 -8.95,0.6 z m 4.59,-49.87 c 2.86,-0.1 5.41,-0.1 7.94,-0.3 2.33,-0.18 4.65,-0.42 6.92,-1.06 2.61,-0.74 5.1,-1.77 7.64,-2.7 1.35,-0.5 2.68,-1.04 3.88,-1.86 0.62,-0.42 1.19,-0.89 1.6,-1.52 0.41,-0.63 0.21,-1.21 -0.48,-1.31 -0.76,-0.11 -1.53,-0.01 -2.22,-0.49 -0.23,-0.16 -0.54,0.12 -0.8,0.23 -0.75,0.33 -1.5,0.67 -2.24,1.02 -1.5,0.72 -3.15,0.91 -4.72,1.35 -3.05,0.85 -6.19,1.26 -9.34,1.56 -2.29,0.22 -4.58,0.4 -6.85,0.7 -2.13,0.28 -4.26,0.34 -6.39,0.14 -1.55,-0.15 -3.11,-0.28 -4.67,-0.36 -1.43,-0.08 -2.9,-0.04 -4.28,-0.35 -1.37,-0.3 -2.74,-0.5 -4.12,-0.67 -5.21,-0.66 -10.41,-1.39 -15.54,-2.52 -1.44,-0.32 -2.95,-0.4 -4.3,-1.04 -1.89,-0.9 -3.87,-1.55 -5.88,-2.12 -2.2,-0.63 -4.4600002,-1.06 -6.6100002,-1.88 -0.76,-0.29 -1.44,0.13 -2.08,0.39 -0.82,0.34 -0.94,0.94 -0.49,1.71 0.44,0.76 1.13,1.27 1.82,1.8 2.75,2.08 5.9700002,3.08 9.2200002,3.97 4.44,1.22 9.03,1.69 13.54,2.6 4.42,0.89 8.91,1.45 13.43,1.63 1.19,0.05 2.38,0.14 3.55,0.3 3.9,0.54 7.84,0.69 11.47,0.78 z m 27.72,-15.07 c -1.29,0.58 -2.51,1.02 -3.61,1.65 -2.18,1.25 -4.43,2.28 -6.77,3.2 -3.04,1.21 -6.17,1.57 -9.36,1.82 -1.93,0.15 -3.86,-0.17 -5.78,0.08 -1.68,0.22 -3.37,0.19 -5.04,0.08 -2.41,-0.16 -4.83,-0.15 -7.25,-0.32 -2.29,-0.16 -4.58,-0.28 -6.85,-0.58 -3.17,-0.42 -6.3,-1.08 -9.46,-1.54 -1.67,-0.24 -3.26,-0.8 -4.91,-1.12 -2.05,-0.39 -4.1,-0.82 -6.1,-1.44 -1.06,-0.33 -2.06,-0.83 -3.13,-1.07 -3.13,-0.7 -6.1000002,-1.9 -9.1600002,-2.83 -1.24,-0.38 -2.44,-1 -3.8,-0.94 -0.54,0.02 -1.17,-0.05 -1.35,0.58 -0.19,0.66 0.43,0.91 0.88,1.16 1.3,0.72 2.71,1.17 4.13,1.58 2.8,0.8 5.6300002,1.5 8.3900002,2.46 1.59,0.55 3.13,1.28 4.76,1.66 2.95,0.7 5.95,1.23 8.93,1.79 4.68,0.88 9.47,1.06 14.12,2.16 0.28,0.06 0.57,0.03 0.86,0.05 2.46,0.18 4.92,0.35 7.37,0.55 1.23,0.1 2.44,0.14 3.68,0.1 1.56,-0.06 3.1,-0.3 4.66,-0.46 3.31,-0.33 6.61,-0.69 9.91,-1.09 2.37,-0.28 4.64,-1.06 6.93,-1.69 2.34,-0.64 4.54,-1.65 6.5,-3.12 0.81,-0.59 1.64,-1.23 1.45,-2.72 z m -23.15,4.74 c 0,0.02 0,0.03 0,0.05 1.02,-0.07 2.04,-0.21 3.06,-0.2 2.73,0.04 5.38,-0.38 7.98,-1.2 1.44,-0.46 1.7,-1.05 1.08,-2.44 -0.1,-0.22 -0.23,-0.44 -0.36,-0.64 -2.31,-3.5 -5.47,-5.63 -9.67,-6.33 -2.77,-0.46 -5.28,-0.15 -7.6,1.49 -0.84,0.6 -0.83,0.55 -0.31,1.41 1.22,2.04 2.38,4.1 3.07,6.39 0.14,0.46 0.16,1.07 0.47,1.35 0.38,0.35 1.02,0.07 1.54,0.11 0.25,0.03 0.49,0.01 0.74,0.01 z m 4.1,58.19 c 1.12,0.48 2.04,0.47 2.95,0.21 0.95,-0.26 1.87,-0.6 2.77,-1.02 1.07,-0.5 1.92,-0.11 2.19,1.06 0.15,0.64 0.23,1.29 0.3,1.94 0.2,1.77 0.39,3.54 0.61,5.55 0.18,-0.53 0.31,-0.82 0.39,-1.13 0.37,-1.43 0.77,-2.85 1.09,-4.29 0.12,-0.55 0.38,-0.83 0.88,-1.02 2.17,-0.81 4.04,-2.15 5.84,-3.56 0.96,-0.75 0.92,-0.82 0.11,-1.71 -1.75,-1.93 -3.27,-4 -4.1,-6.51 -0.05,-0.14 -0.1,-0.31 -0.29,-0.37 -0.36,0.23 -0.48,0.65 -0.77,0.94 -0.81,0.8 -1.28,1.63 -0.45,2.72 0.14,0.18 0.12,0.47 0.18,0.71 0.2,0.95 0.41,1.9 0.6,2.82 0.23,0.11 0.36,0 0.49,-0.09 0.61,-0.42 1.19,-0.87 1.82,-1.25 0.38,-0.23 0.81,-0.21 1.09,0.2 0.32,0.48 -0.01,0.74 -0.36,1 -1.09,0.8 -2.29,1.44 -3.25,2.42 -0.32,0.33 -0.75,0.32 -1.16,0.22 -0.36,-0.1 -0.54,-0.32 -0.42,-0.73 0.55,-1.83 -0.27,-3.5 -0.5,-5.31 -0.68,0.3 -0.89,0.83 -1.29,1.17 -0.2,0.18 -0.28,0.39 -0.19,0.66 0.26,0.75 0.01,1.46 -0.15,2.17 -0.22,0.95 -0.24,0.97 -1.2,0.98 -1.45,0.02 -2.76,0.37 -3.78,1.48 -0.25,0.27 -0.63,0.43 -0.88,0.24 -0.99,-0.73 -1.56,0.14 -2.52,0.5 z m 52.170003,-22.8 c 0.33,0.31 0.5,0.77 0.69,1.21 1.1,2.51 2.22,5.02 3.52,7.45 0.25,0.46 0.49,0.95 0.97,1.35 0.06,-0.19 0.08,-0.23 0.08,-0.27 -0.06,-0.53 -0.09,-1.06 -0.18,-1.59 -0.52,-3.14 -1.22,-6.18 -3.61,-8.55 -0.3,-0.3 -0.45,-0.41 -0.76,-0.19 -0.22,0.17 -0.54,0.22 -0.71,0.59 z m 16.55,0.49 c 0.17,-0.31 0.09,-0.47 0.03,-0.61 -0.87,-2.04 -1.79,-4.05 -3.07,-5.86 -0.31,-0.44 -0.67,-0.81 -1.12,-1.13 -0.41,-0.29 -0.81,-0.48 -1.2,-0.07 -0.37,0.4 0.12,0.67 0.28,0.94 0.89,1.48 2.14,2.69 3.13,4.1 0.61,0.87 1.26,1.7 1.95,2.63 z m -62.410003,18.56 c 0.37,0.14 0.69,0.2 0.82,-0.29 0.03,-0.12 -0.03,-0.27 -0.14,-0.27 -0.38,-0.03 -0.53,0.25 -0.68,0.56 z"
     id="path4"
     inkscape:connector-curvature="0" /><path
     d="m 23.159017,153.15 c 0.08,-0.22 0.18,-0.53 0.29,-0.84 0.77,-2.2 2.08,-4.09 3.38,-5.99 0.95,-1.39 1.81,-2.83 2.81,-4.19 0.88,-1.2 1.88,-2.28 3.01,-3.24 0.59,-0.5 1.21,-0.94 1.52,-1.73 0.21,-0.53 0.59,-0.53 0.9,-0.03 0.26,0.41 0.44,0.88 0.62,1.34 0.15,0.37 0.12,0.73 -0.29,0.96 -0.42,0.24 -0.56,0.69 -0.77,1.09 -1.53,2.91 -2.98,5.85 -4.75,8.63 -1.3,2.05 -2.95,3.73 -5,5.01 -0.32,0.2 -0.57,0.63 -1.08,0.34 -0.49,-0.29 -0.59,-0.75 -0.64,-1.35 z m 8.43,-10.59 c -1.16,0.94 -5.44,7.36 -5.8,8.6 2.89,-2.35 4.21,-5.56 5.8,-8.6 z"
     id="path6"
     inkscape:connector-curvature="0" /><path
     d="m 21.289017,131.78 c 0.49,0.11 0.91,0.3 1.02,0.8 0.1,0.44 -0.21,0.69 -0.59,0.8 -0.65,0.19 -0.81,0.71 -1,1.28 -0.8,2.33 -1.68,4.62 -2.71,6.86 -0.99,2.15 -2.5,3.93 -3.9,5.8 -0.24,0.32 -0.51,0.53 -0.93,0.4 -0.4,-0.12 -0.58,-0.43 -0.7,-0.8 -0.12,-0.37 -0.03,-0.73 0.05,-1.09 0.72,-3.45 2.01,-6.66 3.92,-9.61 0.85,-1.31 1.76,-2.57 3.01,-3.55 0.55,-0.44 1.17,-0.74 1.83,-0.89 z m -6.62,11.75 c 1.37,-1.36 3.39,-5.5 3.45,-7 -1.62,2.09 -2.62,4.41 -3.45,7 z"
     id="path8"
     inkscape:connector-curvature="0" /><path
     d="m 43.279017,153.89 c -0.01,0.06 -0.01,0.19 -0.05,0.3 -1.02,3.31 -2.83,6.08 -5.59,8.19 -0.95,0.72 -1.68,0.4 -1.93,-0.78 -0.08,-0.37 -0.09,-0.73 0.06,-1.08 1.24,-2.84 2.81,-5.46 4.97,-7.71 0.06,-0.06 0.11,-0.13 0.18,-0.17 0.43,-0.23 0.68,-0.89 1.36,-0.52 0.58,0.33 1.02,1.02 1,1.77 z m -2.34,1.32 c -1.1,1.19 -2.02,2.48 -2.71,3.94 1.38,-1 2.15,-2.4 2.71,-3.94 z"
     id="path10"
     inkscape:connector-curvature="0" /><path
     d="m 29.209017,72.11 c 0.58,0.05 1.15,-0.04 1.72,0.1 0.46,0.12 0.84,0.32 1.06,0.76 0.19,0.38 0.14,0.88 -0.23,0.94 -0.83,0.12 -1.35,0.91 -2.25,0.85 -0.42,-0.03 -0.88,0.18 -1.3,0.36 -2.84,1.19 -5.66,2.43 -8.14,4.3 -0.85,0.64 -1.63,1.38 -2.33,2.18 -0.34,0.39 -0.64,0.58 -1.16,0.35 -0.53,-0.23 -0.58,-0.64 -0.55,-1.11 0.01,-0.16 0.05,-0.33 0.11,-0.48 0.82,-1.92 1.95,-3.62 3.74,-4.76 2.15,-1.37 4.34,-2.65 6.89,-3.18 0.82,-0.17 1.63,-0.21 2.44,-0.31 z"
     id="path12"
     inkscape:connector-curvature="0" /><path
     d="m 38.009017,80.4 c 0.83,0 1.32,0.68 1.12,1.48 -0.25,1.03 -0.61,1.75 -1.88,1.99 -1.18,0.22 -2.25,0.97 -3.39,1.44 -1.67,0.68 -3.39,1.23 -4.95,2.18 -0.99,0.6 -1.89,1.31 -2.82,1.98 -0.75,0.54 -1.07,0.57 -1.48,0.11 -0.43,-0.48 -0.45,-1.14 0.01,-1.68 1.51,-1.74 3.09,-3.39 5.06,-4.64 2.48,-1.58 5.21,-2.38 8.07,-2.82 0.09,-0.03 0.17,-0.03 0.26,-0.04 z"
     id="path14"
     inkscape:connector-curvature="0" /><path
     d="m 45.679017,89.15 c 0,0.25 0.03,0.5 -0.01,0.73 -0.08,0.45 -0.33,0.78 -0.83,0.73 -1.38,-0.14 -2.57,0.44 -3.75,0.98 -1.45,0.66 -2.85,1.43 -4.27,2.15 -0.65,0.33 -0.96,0.29 -1.38,-0.24 -0.42,-0.52 -0.43,-1.08 0.06,-1.53 0.47,-0.45 0.98,-0.87 1.52,-1.24 2.12,-1.42 4.38,-2.55 6.92,-3.03 1.39,-0.26 1.84,0.07 1.74,1.45 z"
     id="path16"
     inkscape:connector-curvature="0" /><path
     d="m 96.969017,124.21 c -0.16,6.53 -2.16,12.57 -4.81,18.44 -0.4,0.9 -0.85,1.77 -1.25,2.67 -0.2,0.46 -0.34,0.96 -1,0.89 -0.45,-0.05 -1.01,-0.64 -1.03,-1.23 -0.05,-1.27 -0.26,-2.53 -0.2,-3.81 0.37,-7.38 2.61,-14.22 6.07,-20.69 0.26,-0.48 0.47,-0.98 1.18,-0.79 0.68,0.18 1.02,0.56 1.03,1.33 0.03,1.06 0.01,2.12 0.01,3.19 z m -1.66,-0.35 c -0.35,0.09 -0.41,0.24 -0.48,0.39 -2.12,4.48 -3.44,9.21 -4.37,14.07 -0.18,0.93 -0.09,2.53 0.14,3.22 2.79,-5.59 4.52,-11.38 4.71,-17.68 z"
     id="path18"
     inkscape:connector-curvature="0" /><path
     d="m 106.41902,125.05 c -0.13,1.67 -0.12,3.36 -0.38,5.02 -0.22,1.43 -0.66,2.78 -1.12,4.14 -0.18,0.54 -0.35,1.09 -0.46,1.66 -0.08,0.43 -0.15,0.84 -0.67,0.88 -0.48,0.04 -0.93,-0.15 -1.11,-0.61 -0.45,-1.18 -1.08,-2.27 -1.26,-3.58 -0.51,-3.66 -0.3,-7.25 0.67,-10.83 0.39,-1.43 0.84,-2.81 1.49,-4.14 0.16,-0.33 0.18,-0.72 0.69,-0.72 0.5,0 0.87,0.19 1.11,0.64 0.48,0.91 0.86,1.85 1.03,2.88 0.24,1.56 0.16,3.1 0.01,4.66 z m -3.08,7.93 c 0.28,-0.75 0.57,-1.42 0.79,-2.11 0.17,-0.54 0.29,-1.11 0.35,-1.68 0.29,-2.68 0.34,-5.38 0.38,-8.08 0.01,-0.39 0.01,-0.8 -0.31,-1.13 -1.11,2.04 -2.45,10.4 -1.21,13 z"
     id="path20"
     inkscape:connector-curvature="0" /><path
     d="m 117.84902,126.14 c -0.02,0.61 0.19,1.22 -0.02,1.83 -0.26,0.73 -0.62,0.96 -1.3,0.58 -1.48,-0.82 -2.8,-1.82 -3.56,-3.44 -1.27,-2.72 -1.68,-5.55 -1.27,-8.52 0.09,-0.67 0.58,-0.88 1.25,-0.51 1.53,0.84 2.53,2.15 3.35,3.66 1.08,2.02 1.6,4.14 1.55,6.4 z m -4.31,-7.62 c -0.04,0.49 -0.11,0.97 -0.11,1.46 0.03,2.04 0.46,3.97 1.72,5.64 0.25,0.34 0.49,0.74 1.05,0.7 0.11,-2.95 -0.63,-5.57 -2.66,-7.8 z"
     id="path22"
     inkscape:connector-curvature="0" /><path
     d="m 57.029017,138.21 c -1.77,-2.23 -2.76,-4.75 -2.89,-7.58 -0.03,-0.64 -0.28,-1.47 0.48,-1.75 0.69,-0.25 1.22,0.39 1.6,0.9 1.25,1.67 2.89,3.03 3.93,4.87 0.04,0.06 0.13,0.09 0.23,0.15 1.27,-1.13 2.33,-2.5 3.72,-3.53 1.43,-1.05 2.94,-1.95 4.48,-2.8 0.86,-0.48 1.76,-0.88 2.55,-1.49 0.51,-0.39 0.92,-0.31 1.18,0.24 0.28,0.6 0.35,1.13 -0.03,1.84 -1.45,2.66 -3.55,4.81 -5.41,7.15 -0.56,0.71 -0.63,0.7 -0.02,1.32 2.07,2.09 2.98,4.78 3.79,7.5 0.18,0.61 0.15,1.3 0.13,1.95 -0.02,0.53 -0.51,0.77 -0.98,0.47 -0.45,-0.28 -0.8,-0.7 -1.24,-1 -1.67,-1.15 -3.13,-2.51 -4.4,-4.08 -0.65,-0.8 -0.77,-0.77 -1.56,-0.05 -0.12,0.11 -0.24,0.22 -0.35,0.34 -2.68,2.96 -6.04,4.88 -9.71,6.3 -0.23,0.09 -0.49,0.14 -0.68,0.29 -0.52,0.4 -0.99,0.36 -1.43,-0.08 -0.43,-0.44 -0.36,-0.97 -0.17,-1.5 0.05,-0.15 0.16,-0.29 0.27,-0.41 0.84,-0.93 1.32,-2.07 1.87,-3.17 0.74,-1.48 1.73,-2.79 2.94,-3.91 0.64,-0.59 1.23,-1.2 1.7,-1.97 z m 11.98,6.5 c -0.21,-1.35 -0.55,-2.62 -1.27,-3.72 -0.8,-1.22 -1.52,-2.53 -3.03,-3.12 -0.78,-0.31 -0.9,-1.41 -0.21,-1.93 1.66,-1.27 2.71,-3.07 4.11,-4.56 0.21,-0.22 0.53,-0.47 0.49,-0.87 -0.36,-0.03 -0.56,0.14 -0.77,0.25 -1.68,0.96 -3.29,2.03 -4.71,3.34 -0.97,0.9 -2.07,1.74 -2.24,3.24 -0.05,0.42 -0.39,0.57 -0.84,0.34 -0.55,-0.29 -0.87,-0.75 -1.07,-1.3 -0.69,-1.91 -2.35,-3.04 -3.59,-4.52 0.39,1.99 0.5,4.1 2.73,5.12 0.77,0.35 0.94,1.69 0.31,2.23 -1.12,0.97 -2.04,2.13 -3.09,3.16 -0.85,0.84 -1.53,1.82 -2.14,2.85 -0.24,0.41 -0.49,0.82 -0.54,1.3 0.11,0.04 0.15,0.07 0.18,0.06 0.56,-0.25 1.13,-0.49 1.68,-0.76 2.94,-1.48 5.49,-3.42 7.43,-6.12 0.62,-0.87 1.3,-0.89 1.74,0.05 1.05,2.2 3.03,3.48 4.83,4.96 z"
     id="path24"
     inkscape:connector-curvature="0" /><path
     d="m 64.199017,67.06 c -0.11,2.04 -0.5,4.16 -1.4,6.17 -0.6,1.34 -1.27,2.67 -1.77,4.05 -0.7,1.92 -2.22,3.23 -3.35,4.82 -0.29,0.41 -0.65,0.2 -0.99,0.05 -0.49,-0.21 -0.71,-0.57 -0.55,-1.08 0.53,-1.76 1.02,-3.54 1.64,-5.27 1.1,-3.09 2.45,-6.08 3.77,-9.08 0.26,-0.59 0.59,-1.12 0.47,-1.86 -0.1,-0.64 0.45,-0.89 1.09,-0.62 0.45,0.19 0.74,0.53 0.85,0.99 0.13,0.55 0.29,1.11 0.24,1.83 z m -5.32,10.45 c 1.09,-1.29 3.1,-6.45 2.98,-7.58 -1.11,2.53 -2.23,4.97 -2.98,7.58 z"
     id="path26"
     inkscape:connector-curvature="0" /><path
     d="m 48.719017,73.42 c 0.26,-3.8 2.24,-6.64 4.93,-9.1 0.79,-0.72 1.63,-1.37 2.58,-1.87 0.81,-0.43 1.67,-0.68 2.6,-0.62 0.38,0.03 0.73,0.11 0.97,0.44 0.21,0.29 0.38,0.64 -0.12,0.76 -0.47,0.11 -0.51,0.27 -0.27,0.65 0.23,0.38 0.06,0.68 -0.24,0.97 -2.29,2.25 -4.23,4.8 -6.29,7.25 -0.75,0.88 -1.56,1.68 -2.46,2.4 -0.47,0.38 -0.92,0.27 -1.37,0.05 -0.39,-0.2 -0.45,-0.57 -0.33,-0.93 z m 8.76,-9.58 c -3.02,1.28 -6.34,5.29 -6.61,7.82 2.25,-2.66 4.43,-5.24 6.61,-7.82 z"
     id="path28"
     inkscape:connector-curvature="0" /><path
     d="m 67.219017,79.31 c -0.04,-0.82 0.05,-1.88 0.15,-2.94 0.21,-2.36 0.2,-4.75 0.51,-7.11 0.03,-0.24 0.01,-0.5 0.08,-0.73 0.18,-0.55 0.69,-0.73 1.17,-0.43 0.14,0.08 0.31,0.18 0.37,0.32 0.68,1.65 2.06,2.95 2.22,4.86 0.13,1.51 -0.08,2.94 -0.48,4.36 -0.45,1.63 -1.27,3.1 -2.17,4.53 -0.27,0.43 -0.59,0.53 -1.03,0.39 -0.44,-0.14 -0.84,-0.33 -0.82,-0.92 0.01,-0.68 0,-1.38 0,-2.33 z m 1.75,-0.27 c 1.6,-2.61 1.82,-6.31 0.5,-7.85 -0.2,2.69 -0.24,5.28 -0.5,7.85 z"
     id="path30"
     inkscape:connector-curvature="0" /><path
     d="m 62.429017,90.52 c 0.58,-0.06 1.11,0.09 1.58,0.48 0.19,0.16 0.39,0.34 0.61,0.41 1.43,0.43 1.56,1.66 1.76,2.83 0.13,0.79 -0.26,1.15 -1.07,1 -1.33,-0.25 -2.66,-0.51 -3.78,-1.36 -0.29,-0.22 -0.61,-0.41 -0.99,-0.49 -0.56,-0.11 -0.83,-0.46 -0.9,-1.02 -0.07,-0.6 0.13,-1.02 0.64,-1.35 0.66,-0.41 1.38,-0.5 2.15,-0.5 z m -0.06,2.01 c 0.33,0.36 0.63,0.54 1.14,0.58 -0.22,-0.7 -0.59,-0.73 -1.14,-0.58 z"
     id="path32"
     inkscape:connector-curvature="0" /><g
     id="g36"
     transform="translate(-143.08098,-164.77)"><path
       class="st0"
       d="M 358.82,71.09 C 358,178 362,285 357,392 253,391 149,394 45,391 43,266 44,142 44,17 c 4.7,0 0.06,7.93 0,0 5,0 11,0 16,1 -3,6 -13,3 -16,-1 35.59,0 0.06,2.17 0,0 91,0 182,0 273.06,-0.31"
       id="path34"
       inkscape:connector-curvature="0"
       style="fill:none" /></g><path
     class="st0"
     d="m 142.59902,-28.81 c -32.96,0 -60.090003,24.93 -63.570003,56.97 h 5.87 c 0.38,-0.09 0.78,-0.15 1.23,-0.15 2.2,-0.02 4.2,0.22 6.04,0.67 0.37,0.04 0.74,0.08 1.12,0.12 1.33,0.15 2.37,0.69 3.15,1.44 2.09,1.03 3.940003,2.4 5.650003,3.98 2.35,1.07 4.59,2.32 6.67,3.78 1.36,0.96 2.03,2.45 2.14,3.97 0.74,0.56 1.37,1.35 1.79,2.42 0.14,0.36 0.3,0.71 0.47,1.05 0.42,0.07 0.84,0.19 1.25,0.36 1.42,-0.39 3.01,-0.07 4.41,1.41 4.86,5.13 8.94,12.13 10.6,19.4 0.44,0.38 0.83,0.86 1.12,1.48 2.99,6.35 4.67,12.98 4.85,20.01 0.03,1.38 -0.45,2.47 -1.21,3.28 0.42,2.43 0.76,4.86 0.87,7.25 2.48,0.3 5,0.47 7.57,0.47 35.32,0 63.96,-28.64 63.96,-63.96 0,-35.32 -28.66,-63.95 -63.98,-63.95 z"
     id="path38"
     inkscape:connector-curvature="0"
     style="fill:none" /><path
     class="st0"
     d="m 89.369017,40.86 c -0.22,-0.22 -0.4,-0.45 -0.57,-0.69 -1.57,-0.41 -3.15,-0.74 -4.72,-1.03 -1.76,0.1 -3.52,0.2 -5.28,0.32 0.29,4.42 1.03,8.72 2.18,12.86 11.16,10.1 20.100003,23.14 28.900003,35.15 1.23,1.68 2.56,3.27 3.94,4.82 2.54,1.28 5.18,2.4 7.9,3.34 -2.63,-11.48 -5.07,-22.96 -10.06,-33.54 -6.74,-7.69 -14.990003,-14.03 -22.290003,-21.23 z"
     id="path40"
     inkscape:connector-curvature="0"
     style="fill:none" /><path
     class="st0"
     d="M 152.24902,-9.98"
     id="path42"
     inkscape:connector-curvature="0"
     style="fill:none" /><path
     class="st0"
     d="M 152.24902,1.12"
     id="path44"
     inkscape:connector-curvature="0"
     style="fill:none" /><g
     id="g70"
     transform="translate(-143.08098,-164.77)"><path
       d="m 178.03,194.32 2.14,-1.12 -9.5,-18.2 -1.94,1.01 -0.94,-1.79 3.72,-1.94 6.04,11.57 c 0.07,0.23 0.14,0.45 0.21,0.65 0.07,0.2 0.13,0.4 0.19,0.62 -0.02,-0.23 0.02,-0.54 0.14,-0.92 0.12,-0.38 0.3,-0.78 0.54,-1.19 0.25,-0.41 0.56,-0.81 0.94,-1.19 0.38,-0.38 0.84,-0.71 1.37,-0.99 0.8,-0.42 1.62,-0.66 2.46,-0.72 0.84,-0.06 1.65,0.04 2.43,0.3 0.78,0.26 1.49,0.65 2.15,1.18 0.65,0.53 1.18,1.18 1.58,1.95 0.4,0.77 0.64,1.58 0.7,2.42 0.06,0.84 -0.02,1.65 -0.26,2.44 -0.23,0.78 -0.61,1.51 -1.14,2.16 -0.53,0.66 -1.2,1.19 -2,1.61 -0.57,0.3 -1.13,0.5 -1.67,0.6 -0.54,0.1 -1.05,0.14 -1.51,0.11 -0.46,-0.03 -0.87,-0.1 -1.22,-0.21 -0.35,-0.11 -0.61,-0.24 -0.79,-0.4 l 0.5,0.95 0.45,0.87 -3.72,1.94 z m 9.77,-9.86 c -0.28,-0.54 -0.64,-0.99 -1.08,-1.37 -0.44,-0.38 -0.92,-0.65 -1.45,-0.81 -0.52,-0.17 -1.08,-0.22 -1.66,-0.17 -0.58,0.05 -1.15,0.22 -1.71,0.51 -0.57,0.3 -1.05,0.68 -1.42,1.13 -0.37,0.45 -0.64,0.94 -0.81,1.46 -0.16,0.52 -0.22,1.08 -0.17,1.66 0.05,0.58 0.21,1.14 0.49,1.68 0.29,0.56 0.66,1.02 1.1,1.38 0.45,0.36 0.93,0.63 1.46,0.79 0.52,0.17 1.08,0.22 1.66,0.17 0.58,-0.05 1.16,-0.22 1.74,-0.52 0.55,-0.29 1.02,-0.66 1.39,-1.11 0.37,-0.45 0.64,-0.94 0.81,-1.46 0.16,-0.52 0.22,-1.07 0.17,-1.64 -0.05,-0.58 -0.23,-1.14 -0.52,-1.7 z"
       id="path46"
       inkscape:connector-curvature="0" /><path
       d="m 192.07,187.35 2.38,-0.72 -2.41,-7.93 -2.13,0.65 -0.59,-1.94 3.77,-1.14 0.24,0.68 c 0.15,0.43 0.3,0.81 0.43,1.15 0.14,0.33 0.28,0.72 0.43,1.15 0.09,-0.6 0.26,-1.15 0.5,-1.67 0.25,-0.52 0.54,-0.98 0.88,-1.39 0.34,-0.41 0.7,-0.75 1.1,-1.03 0.4,-0.28 0.79,-0.48 1.18,-0.6 l 0.46,1.97 c -0.64,0.19 -1.2,0.48 -1.68,0.85 -0.48,0.37 -0.87,0.79 -1.15,1.27 -0.28,0.47 -0.47,0.99 -0.54,1.54 -0.08,0.56 -0.03,1.12 0.15,1.71 l 1.26,4.17 2.13,-0.65 0.56,1.84 -6.42,1.95 z"
       id="path48"
       inkscape:connector-curvature="0" /><path
       d="m 212.6,177.33 -8.83,4.82 c 0.45,0.59 1.02,1.03 1.72,1.33 0.7,0.3 1.47,0.39 2.3,0.28 0.58,-0.08 1.1,-0.25 1.57,-0.53 0.47,-0.28 0.87,-0.62 1.18,-1.02 0.22,0.21 0.45,0.43 0.69,0.65 0.23,0.22 0.48,0.44 0.72,0.65 -0.48,0.61 -1.05,1.12 -1.7,1.51 -0.65,0.39 -1.39,0.64 -2.19,0.75 -0.87,0.12 -1.72,0.06 -2.53,-0.18 -0.81,-0.24 -1.54,-0.6 -2.19,-1.09 -0.65,-0.5 -1.19,-1.11 -1.62,-1.83 -0.43,-0.72 -0.71,-1.53 -0.82,-2.41 -0.11,-0.86 -0.06,-1.71 0.17,-2.52 0.23,-0.82 0.59,-1.55 1.09,-2.2 0.5,-0.65 1.11,-1.19 1.84,-1.62 0.73,-0.43 1.52,-0.71 2.4,-0.83 0.66,-0.09 1.3,-0.04 1.92,0.12 0.62,0.17 1.2,0.45 1.74,0.82 0.54,0.38 1.03,0.85 1.47,1.42 0.42,0.57 0.78,1.2 1.07,1.88 z m -5.98,-2.24 c -0.67,0.09 -1.26,0.3 -1.79,0.63 -0.53,0.33 -0.95,0.74 -1.28,1.22 -0.33,0.48 -0.56,1.01 -0.68,1.59 -0.12,0.58 -0.11,1.18 0.04,1.79 1.16,-0.64 2.33,-1.27 3.49,-1.89 1.16,-0.63 2.33,-1.26 3.49,-1.89 -0.4,-0.51 -0.88,-0.9 -1.45,-1.17 -0.57,-0.27 -1.18,-0.36 -1.82,-0.28 z"
       id="path50"
       inkscape:connector-curvature="0" /><path
       d="m 214.16,178.52 c 0.06,-0.87 0.29,-1.67 0.68,-2.42 0.39,-0.75 0.89,-1.39 1.5,-1.94 0.61,-0.54 1.32,-0.96 2.13,-1.25 0.81,-0.29 1.66,-0.4 2.56,-0.34 0.6,0.04 1.16,0.17 1.67,0.38 0.51,0.21 0.96,0.46 1.35,0.75 0.39,0.29 0.71,0.58 0.95,0.89 0.25,0.3 0.4,0.56 0.44,0.78 0.02,-0.35 0.07,-0.7 0.12,-1.07 0.06,-0.37 0.11,-0.73 0.16,-1.1 l 1.64,0.12 -0.74,10.29 2.41,0.17 -0.14,1.92 -4.18,-0.3 0.07,-0.98 0.08,-1.07 c -0.1,0.21 -0.29,0.44 -0.55,0.68 -0.27,0.24 -0.6,0.47 -1.02,0.68 -0.41,0.21 -0.89,0.38 -1.43,0.5 -0.54,0.12 -1.13,0.16 -1.77,0.12 -0.9,-0.06 -1.73,-0.29 -2.49,-0.69 -0.76,-0.4 -1.4,-0.9 -1.93,-1.51 -0.53,-0.62 -0.93,-1.32 -1.21,-2.12 -0.26,-0.79 -0.36,-1.62 -0.3,-2.49 z m 2,0.11 c -0.04,0.62 0.03,1.21 0.21,1.75 0.19,0.54 0.46,1.02 0.82,1.44 0.36,0.42 0.8,0.76 1.32,1.02 0.52,0.26 1.09,0.42 1.72,0.46 0.62,0.04 1.21,-0.03 1.77,-0.21 0.55,-0.19 1.04,-0.46 1.45,-0.82 0.41,-0.36 0.75,-0.8 1.02,-1.31 0.27,-0.51 0.42,-1.08 0.46,-1.7 0.04,-0.6 -0.03,-1.18 -0.22,-1.74 -0.19,-0.55 -0.46,-1.04 -0.82,-1.45 -0.36,-0.42 -0.8,-0.76 -1.32,-1.02 -0.52,-0.26 -1.09,-0.42 -1.72,-0.46 -0.62,-0.04 -1.21,0.03 -1.77,0.21 -0.55,0.19 -1.04,0.46 -1.45,0.82 -0.42,0.36 -0.76,0.8 -1.02,1.32 -0.26,0.52 -0.41,1.09 -0.45,1.69 z"
       id="path52"
       inkscape:connector-curvature="0" /><path
       d="m 239.7,187.95 0.31,-1.03 c -0.15,0.18 -0.38,0.36 -0.69,0.54 -0.31,0.18 -0.69,0.32 -1.14,0.44 -0.45,0.11 -0.95,0.17 -1.5,0.18 -0.55,0 -1.14,-0.09 -1.75,-0.28 -0.86,-0.26 -1.62,-0.67 -2.28,-1.22 -0.65,-0.55 -1.17,-1.19 -1.54,-1.92 -0.38,-0.73 -0.61,-1.51 -0.7,-2.34 -0.1,-0.84 -0.02,-1.67 0.24,-2.5 0.25,-0.83 0.65,-1.57 1.19,-2.21 0.54,-0.64 1.17,-1.16 1.89,-1.56 0.72,-0.4 1.5,-0.64 2.35,-0.74 0.85,-0.1 1.71,-0.01 2.57,0.25 0.56,0.17 1.06,0.41 1.5,0.71 0.45,0.31 0.83,0.64 1.15,1 0.32,0.36 0.56,0.71 0.74,1.06 0.17,0.35 0.28,0.64 0.32,0.88 0.05,-0.3 0.1,-0.6 0.16,-0.9 0.06,-0.3 0.11,-0.61 0.17,-0.93 l 3.04,-10.03 -2.1,-0.64 0.59,-1.94 4.01,1.22 -6.54,21.58 2.31,0.7 -0.56,1.84 -4.01,-1.22 z m -7.15,-7.55 c -0.18,0.6 -0.24,1.18 -0.18,1.76 0.06,0.57 0.22,1.1 0.48,1.59 0.26,0.48 0.61,0.91 1.06,1.29 0.45,0.37 0.98,0.65 1.57,0.83 0.6,0.18 1.19,0.24 1.77,0.18 0.58,-0.06 1.12,-0.22 1.6,-0.48 0.48,-0.26 0.91,-0.61 1.28,-1.05 0.37,-0.44 0.65,-0.96 0.83,-1.56 0.18,-0.58 0.23,-1.16 0.17,-1.74 -0.06,-0.58 -0.22,-1.12 -0.48,-1.6 -0.26,-0.48 -0.61,-0.91 -1.06,-1.29 -0.45,-0.37 -0.98,-0.65 -1.58,-0.83 -0.6,-0.18 -1.19,-0.24 -1.77,-0.18 -0.58,0.06 -1.12,0.22 -1.6,0.48 -0.48,0.26 -0.91,0.61 -1.29,1.07 -0.35,0.43 -0.62,0.95 -0.8,1.53 z"
       id="path54"
       inkscape:connector-curvature="0" /><path
       d="m 244.37,188.79 2.14,1.06 3.68,-7.43 -2.14,-1.06 0.9,-1.81 3.93,1.94 -4.57,9.24 2.08,1.03 -0.85,1.73 -6.01,-2.97 z m 8.4,-12.39 c 0.17,-0.35 0.44,-0.58 0.81,-0.7 0.37,-0.12 0.72,-0.09 1.05,0.07 0.31,0.15 0.52,0.41 0.64,0.77 0.12,0.36 0.1,0.71 -0.07,1.06 -0.18,0.37 -0.45,0.6 -0.8,0.7 -0.35,0.1 -0.68,0.08 -0.99,-0.08 -0.33,-0.16 -0.56,-0.42 -0.7,-0.76 -0.14,-0.34 -0.12,-0.7 0.06,-1.06 z"
       id="path56"
       inkscape:connector-curvature="0" /><path
       d="m 252.93,203.17 2.09,1.51 4.26,-5.9 c 0.11,-0.11 0.22,-0.22 0.33,-0.32 0.12,-0.1 0.24,-0.22 0.38,-0.33 -0.23,0.13 -0.53,0.22 -0.9,0.28 -0.37,0.05 -0.78,0.06 -1.23,0.02 -0.45,-0.04 -0.92,-0.15 -1.43,-0.33 -0.51,-0.18 -1.01,-0.44 -1.49,-0.8 -0.73,-0.53 -1.32,-1.16 -1.76,-1.89 -0.44,-0.73 -0.72,-1.51 -0.84,-2.31 -0.12,-0.81 -0.09,-1.63 0.09,-2.45 0.18,-0.82 0.53,-1.59 1.05,-2.32 0.51,-0.71 1.12,-1.27 1.85,-1.71 0.72,-0.43 1.48,-0.71 2.28,-0.85 0.8,-0.13 1.62,-0.11 2.45,0.08 0.83,0.19 1.62,0.54 2.35,1.07 0.47,0.34 0.87,0.73 1.19,1.18 0.33,0.45 0.58,0.9 0.77,1.34 0.18,0.44 0.3,0.86 0.35,1.26 0.05,0.4 0.04,0.71 -0.02,0.93 0.22,-0.3 0.45,-0.59 0.7,-0.86 0.25,-0.28 0.48,-0.56 0.7,-0.86 l 3.37,2.44 -1.18,1.64 -2.04,-1.47 -9.63,13.34 1.73,1.25 -1.13,1.56 -5.44,-3.93 z m 2.19,-13.67 c -0.37,0.51 -0.61,1.04 -0.74,1.6 -0.13,0.56 -0.15,1.12 -0.07,1.67 0.08,0.55 0.27,1.08 0.58,1.58 0.3,0.5 0.71,0.93 1.22,1.3 0.51,0.37 1.05,0.62 1.62,0.75 0.57,0.13 1.13,0.15 1.68,0.05 0.55,-0.1 1.07,-0.29 1.56,-0.59 0.49,-0.3 0.92,-0.7 1.29,-1.21 0.35,-0.49 0.59,-1.02 0.72,-1.58 0.12,-0.56 0.15,-1.11 0.06,-1.66 -0.09,-0.54 -0.28,-1.06 -0.59,-1.56 -0.31,-0.5 -0.71,-0.93 -1.22,-1.3 -0.51,-0.37 -1.05,-0.61 -1.62,-0.75 -0.57,-0.13 -1.13,-0.15 -1.67,-0.06 -0.54,0.09 -1.06,0.28 -1.55,0.58 -0.49,0.3 -0.92,0.69 -1.27,1.18 z"
       id="path58"
       inkscape:connector-curvature="0" /><path
       d="m 271.46,194.12 2.82,3.19 -6.03,5.32 c -0.46,0.46 -0.72,1.01 -0.8,1.63 -0.07,0.62 0.16,1.27 0.7,1.94 0.4,0.45 0.86,0.82 1.38,1.1 0.52,0.28 1.07,0.46 1.62,0.52 0.56,0.06 1.11,0.03 1.66,-0.11 0.55,-0.14 1.05,-0.41 1.5,-0.81 l 3.22,-2.84 -1.49,-1.69 1.52,-1.34 2.82,3.19 -7.88,6.96 1.41,1.6 -1.3,1.14 -2.69,-3.05 1.25,-1.15 1.14,-0.92 c -1.07,0.37 -2.15,0.4 -3.25,0.09 -1.1,-0.31 -2.04,-0.9 -2.82,-1.79 -0.81,-0.92 -1.2,-1.87 -1.17,-2.84 0.03,-0.98 0.44,-1.84 1.22,-2.59 l 5.13,-4.53 -1.49,-1.69 z"
       id="path60"
       inkscape:connector-curvature="0" /><path
       d="m 285,220.75 -7.81,-6.34 c -0.38,0.64 -0.57,1.34 -0.58,2.1 -0.01,0.76 0.2,1.5 0.61,2.23 0.29,0.5 0.65,0.92 1.09,1.25 0.43,0.33 0.9,0.57 1.39,0.71 -0.11,0.29 -0.22,0.58 -0.34,0.88 -0.12,0.3 -0.22,0.6 -0.32,0.91 -0.75,-0.21 -1.43,-0.55 -2.04,-1 -0.61,-0.45 -1.12,-1.04 -1.53,-1.74 -0.44,-0.77 -0.7,-1.57 -0.8,-2.41 -0.1,-0.84 -0.03,-1.65 0.18,-2.45 0.21,-0.79 0.57,-1.52 1.07,-2.19 0.5,-0.67 1.14,-1.23 1.92,-1.68 0.75,-0.43 1.55,-0.7 2.4,-0.8 0.85,-0.1 1.66,-0.04 2.45,0.17 0.79,0.22 1.52,0.58 2.2,1.08 0.68,0.5 1.24,1.14 1.67,1.9 0.33,0.58 0.54,1.19 0.61,1.82 0.08,0.64 0.04,1.28 -0.1,1.92 -0.15,0.64 -0.4,1.27 -0.75,1.9 -0.36,0.64 -0.8,1.22 -1.32,1.74 z m -0.21,-6.38 c -0.33,-0.58 -0.75,-1.06 -1.26,-1.42 -0.5,-0.36 -1.04,-0.6 -1.61,-0.73 -0.57,-0.13 -1.15,-0.13 -1.73,-0.02 -0.58,0.11 -1.13,0.35 -1.64,0.72 1.03,0.83 2.06,1.67 3.08,2.51 1.02,0.84 2.05,1.68 3.08,2.51 0.32,-0.56 0.5,-1.15 0.53,-1.79 0.02,-0.62 -0.12,-1.22 -0.45,-1.78 z"
       id="path62"
       inkscape:connector-curvature="0" /><path
       d="m 298.35,220.18 0.72,1.87 -7.43,2.86 1.23,3.19 -1.89,0.73 -1.23,-3.19 -7.74,2.98 0.9,2.35 -1.8,0.69 -1.62,-4.21 9.53,-3.67 -0.98,-2.56 1.89,-0.73 0.99,2.56 z"
       id="path64"
       inkscape:connector-curvature="0" /><path
       d="m 301.85,230.78 0.48,1.94 -7.74,1.89 0.81,3.32 -1.97,0.48 -0.81,-3.32 -8.05,1.97 0.6,2.44 -1.87,0.46 -1.07,-4.39 9.92,-2.43 -0.65,-2.66 1.96,-0.48 0.65,2.66 z"
       id="path66"
       inkscape:connector-curvature="0" /><path
       d="m 292.24,252.46 -4.42,-9.04 c -0.61,0.42 -1.08,0.97 -1.41,1.66 -0.33,0.69 -0.46,1.45 -0.38,2.28 0.05,0.58 0.2,1.11 0.46,1.6 0.25,0.48 0.58,0.89 0.97,1.23 -0.22,0.21 -0.45,0.43 -0.68,0.66 -0.23,0.22 -0.46,0.45 -0.68,0.69 -0.59,-0.51 -1.07,-1.1 -1.43,-1.77 -0.36,-0.67 -0.58,-1.41 -0.65,-2.23 -0.08,-0.88 0.02,-1.72 0.29,-2.52 0.27,-0.8 0.67,-1.51 1.19,-2.14 0.52,-0.63 1.16,-1.14 1.9,-1.54 0.74,-0.4 1.55,-0.64 2.44,-0.71 0.87,-0.08 1.71,0.02 2.51,0.28 0.81,0.26 1.53,0.66 2.15,1.19 0.62,0.53 1.14,1.16 1.54,1.91 0.4,0.74 0.64,1.55 0.72,2.43 0.06,0.66 -0.01,1.3 -0.21,1.91 -0.2,0.61 -0.5,1.18 -0.9,1.7 -0.4,0.52 -0.9,0.99 -1.48,1.41 -0.58,0.42 -1.23,0.75 -1.93,1 z m 2.51,-5.88 c -0.06,-0.67 -0.24,-1.27 -0.55,-1.81 -0.31,-0.54 -0.69,-0.99 -1.16,-1.34 -0.46,-0.35 -0.98,-0.6 -1.56,-0.75 -0.58,-0.15 -1.17,-0.16 -1.79,-0.04 0.58,1.19 1.16,2.38 1.73,3.57 0.57,1.19 1.15,2.38 1.73,3.57 0.53,-0.37 0.94,-0.84 1.23,-1.4 0.3,-0.55 0.42,-1.15 0.37,-1.8 z"
       id="path68"
       inkscape:connector-curvature="0" /></g></svg>